<?xml version="1.0" standalone="no"?>
<!DOCTYPE svg PUBLIC "-//W3C//DTD SVG 20010904//EN"
 "http://www.w3.org/TR/2001/REC-SVG-20010904/DTD/svg10.dtd">
<svg version="1.0" xmlns="http://www.w3.org/2000/svg"
 width="700.000000pt" height="700.000000pt" viewBox="0 0 700.000000 700.000000"
 preserveAspectRatio="xMidYMid meet">
<metadata>
Created by potrace 1.14, written by Peter Selinger 2001-2017
</metadata>
<g transform="translate(0.000000,700.000000) scale(0.100000,-0.100000)"
fill="#000000" stroke="none">
<path d="M5918 6995 c-1 -1 -34 -5 -73 -9 -102 -8 -230 -26 -295 -41 -14 -3
-38 -8 -55 -11 -184 -33 -468 -129 -694 -235 -145 -69 -358 -196 -471 -281
-14 -11 -43 -33 -65 -49 -187 -141 -377 -327 -533 -522 -68 -86 -213 -297
-259 -378 l-20 -36 34 -39 c19 -21 49 -56 66 -78 18 -21 37 -43 42 -50 150
-169 385 -559 496 -821 116 -274 218 -633 245 -860 3 -27 7 -52 9 -54 12 -12
315 52 485 102 351 104 722 300 1019 538 114 91 324 294 418 404 109 128 246
320 323 455 36 63 160 313 176 356 111 286 159 458 199 714 32 206 42 472 21
561 -33 142 -128 252 -266 310 -54 23 -64 23 -427 25 -204 1 -373 1 -375 -1z"/>
<path d="M350 6114 c-169 -35 -292 -153 -336 -324 -13 -50 -15 -93 -10 -219 4
-86 8 -169 10 -186 2 -16 7 -57 11 -89 4 -33 9 -69 11 -80 2 -12 9 -48 14 -81
15 -94 65 -289 104 -408 171 -519 487 -992 905 -1355 373 -323 863 -572 1311
-667 8 -2 47 -10 85 -19 149 -32 341 -54 522 -60 40 -1 75 -5 79 -9 4 -4 7
-505 7 -1114 0 -1178 0 -1170 47 -1264 51 -99 162 -192 265 -221 56 -16 171
-19 225 -6 69 16 156 66 210 119 50 51 102 145 118 215 10 45 9 2960 -1 3004
-3 14 -8 52 -12 85 -20 184 -86 462 -153 650 -98 271 -208 485 -379 735 -197
288 -504 587 -816 794 -118 78 -139 90 -283 167 -207 111 -566 242 -749 273
-30 5 -111 21 -150 30 -11 2 -49 7 -85 11 -36 3 -72 8 -80 10 -81 21 -777 27
-870 9z"/>
</g>
</svg>
